<?xml version="1.0" encoding="UTF-8"?> <svg xmlns="http://www.w3.org/2000/svg" xmlns:xlink="http://www.w3.org/1999/xlink" width="164px" height="164px" viewBox="0 0 164 164" version="1.1"><title>Strands-Secondary_Logo_White_Turquoise-BG</title><g id="Page-1" stroke="none" stroke-width="1" fill="none" fill-rule="evenodd"><g id="Strands-Secondary_Logo_White_Turquoise-BG" transform="translate(81.558351, 81.558063) scale(-1, 1) translate(-81.558351, -81.558063) translate(0.000000, -0.000288)" fill-rule="nonzero"><polygon id="Fill-1" fill="#00A7A0" points="0 163.116702 163.116702 163.116702 163.116702 0 0 0"></polygon><g id="Group-8" transform="translate(22.447860, 56.336877)" fill="#FEFEFE"><path d="M1.77635684e-15,6.81232983 C1.77635684e-15,11.0245403 3.23684211,13.8614526 8.05326313,13.8614526 L35.2053333,13.8355579 C37.4207719,13.8355579 39.0780351,14.2239789 40.2864561,15.507207 L68.4340351,45.5019438 C71.4032982,48.6438386 75.9866666,50.4363298 80.912421,50.4363298 C80.9498245,50.4507158 110.167719,50.4363298 110.167719,50.4363298 C114.98414,50.4363298 118.220982,47.7720491 118.220982,43.6145052 C118.220982,39.4051719 114.98414,36.5855228 110.167719,36.5855228 L83.1537544,36.5970316 C80.912421,36.5970316 79.5515087,36.0561193 78.3085614,34.7412421 L50.2990877,4.89324211 C47.2348772,1.63913684 43.4110877,0.00489123 37.4178947,0.00489123 C37.3862456,0.00201404 8.05038593,0.00489123 8.05038593,0.00489123 C3.23684211,0.00201404 1.77635684e-15,2.66341755 1.77635684e-15,6.81232983" id="Fill-2"></path><path d="M71.8530035,22.3903158 C75.6134947,18.3996491 78.3439508,15.505193 78.3439508,15.505193 C79.5466175,14.2190877 80.9190386,13.8335438 83.1718807,13.8335438 L110.165705,13.8594386 C114.985003,13.8594386 118.221845,11.0254035 118.221845,6.81031579 C118.221845,2.66140351 114.985003,-4.4408921e-16 110.165705,-4.4408921e-16 L80.9190386,-4.4408921e-16 C75.9990386,-4.4408921e-16 71.384021,1.66301755 68.342828,4.91424562 C68.3341965,4.91712281 65.6296351,7.80870173 61.9065473,11.7878596 L71.8530035,22.3903158 Z" id="Fill-4" fill-opacity="0.6"></path><path d="M46.8191228,27.9300631 C43.124807,31.8804491 40.4490175,34.7432561 40.4490175,34.7432561 C39.2319649,36.0610105 37.4250877,36.6019228 35.3189824,36.6019228 L8.05470173,36.5846596 C3.23540351,36.5846596 0.0014386,39.4014316 0.0014386,43.6309052 C0.0014386,47.7711859 3.23540351,50.4354666 8.05470173,50.4354666 L37.6495087,50.4354666 C43.4182807,50.4354666 47.2305614,48.6458526 50.0329473,45.549993 C50.0387017,45.5442386 52.8525965,42.5548351 56.7051579,38.469221 L46.8191228,27.9300631 Z" id="Fill-6" fill-opacity="0.6"></path></g></g></g></svg> 